name pl04_filtered_grf.mot
datacolumns 37
datarows 7
range 1.256500 1.259500
endheader
time	1_ground_force_vx	1_ground_force_vy	1_ground_force_vz	1_ground_force_px	1_ground_force_py	1_ground_force_pz	1_ground_torque_x	1_ground_torque_y	1_ground_torque_z	2_ground_force_vx	2_ground_force_vy	2_ground_force_vz	2_ground_force_px	2_ground_force_py	2_ground_force_pz	2_ground_torque_x	2_ground_torque_y	2_ground_torque_z	3_ground_force_vx	3_ground_force_vy	3_ground_force_vz	3_ground_force_px	3_ground_force_py	3_ground_force_pz	3_ground_torque_x	3_ground_torque_y	3_ground_torque_z	4_ground_force_vx	4_ground_force_vy	4_ground_force_vz	4_ground_force_px	4_ground_force_py	4_ground_force_pz	4_ground_torque_x	4_ground_torque_y	4_ground_torque_z
            1.256500	          -16.426625	          264.511719	           14.157958	            0.127222	            0.000000	            0.250161	           -0.362834	            5.842580	            0.312723	           13.304392	          247.279687	           10.473022	           -0.131960	            0.000000	            0.249785	           -0.049805	           -0.925689	           -0.039206	           22.213028	            1.153710	            0.426183	            0.375285	            1.311225	            1.913054	           -0.105303	           -0.005469	           -0.002020	          -18.743551	           -0.679825	            1.242196	           -0.265483	            1.310078	            1.923355	           -0.000190	           -0.000007	            0.000013
            1.257000	          -16.473714	          264.766203	           14.304009	            0.127203	            0.000000	            0.250120	           -0.363841	            5.847675	            0.315921	           13.239162	          247.454120	           10.637119	           -0.131942	            0.000000	            0.249712	           -0.049804	           -0.930893	           -0.040016	           22.186678	            1.139972	            0.410001	            0.375282	            1.311229	            1.913055	           -0.105186	           -0.005405	           -0.001944	          -18.742593	           -0.673311	            1.264956	           -0.265483	            1.310078	            1.923351	           -0.000182	           -0.000007	            0.000012
            1.257500	          -16.519424	          265.026323	           14.441880	            0.127184	            0.000000	            0.250080	           -0.364833	            5.853124	            0.318950	           13.174088	          247.631508	           10.794678	           -0.131925	            0.000000	            0.249641	           -0.049793	           -0.935957	           -0.040800	           22.160652	            1.125935	            0.394152	            0.375280	            1.311234	            1.913057	           -0.105060	           -0.005338	           -0.001869	          -18.739544	           -0.665949	            1.286061	           -0.265483	            1.310079	            1.923347	           -0.000168	           -0.000006	            0.000012
            1.258000	          -16.563628	          265.292161	           14.571410	            0.127165	            0.000000	            0.250042	           -0.365804	            5.858925	            0.321807	           13.109288	          247.811986	           10.945734	           -0.131909	            0.000000	            0.249575	           -0.049772	           -0.940871	           -0.041558	           22.135143	            1.111704	            0.378309	            0.375277	            1.311237	            1.913058	           -0.104927	           -0.005270	           -0.001793	          -18.734407	           -0.657849	            1.305319	           -0.265483	            1.310079	            1.923344	           -0.000151	           -0.000005	            0.000010
            1.258500	          -16.606213	          265.563821	           14.692443	            0.127146	            0.000000	            0.250005	           -0.366754	            5.865075	            0.324488	           13.044879	          247.995671	           11.090328	           -0.131894	            0.000000	            0.249512	           -0.049741	           -0.945623	           -0.042288	           22.110323	            1.097388	            0.363066	            0.375274	            1.311241	            1.913059	           -0.104789	           -0.005201	           -0.001721	          -18.727199	           -0.649123	            1.322673	           -0.265484	            1.310080	            1.923342	           -0.000130	           -0.000005	            0.000009
            1.259000	          -16.647076	          265.841419	           14.804834	            0.127126	            0.000000	            0.249970	           -0.367679	            5.871568	            0.326990	           12.980979	          248.182661	           11.228508	           -0.131880	            0.000000	            0.249452	           -0.049699	           -0.950202	           -0.042990	           22.086367	            1.083095	            0.348548	            0.375271	            1.311245	            1.913061	           -0.104649	           -0.005132	           -0.001651	          -18.717959	           -0.639882	            1.338039	           -0.265484	            1.310080	            1.923340	           -0.000108	           -0.000004	            0.000008
            1.259500	          -16.686126	          266.125086	           14.908446	            0.127107	            0.000000	            0.249938	           -0.368577	            5.878399	            0.329311	           12.917708	          248.373034	           11.360328	           -0.131866	            0.000000	            0.249396	           -0.049648	           -0.954596	           -0.043662	           22.063442	            1.068929	            0.334873	            0.375268	            1.311249	            1.913062	           -0.104510	           -0.005063	           -0.001586	          -18.706751	           -0.630240	            1.351361	           -0.265485	            1.310080	            1.923338	           -0.000084	           -0.000003	            0.000006
